<?xml version="1.0" standalone="no"?>
<!DOCTYPE svg PUBLIC "-//W3C//DTD SVG 20010904//EN"
 "http://www.w3.org/TR/2001/REC-SVG-20010904/DTD/svg10.dtd">
<svg version="1.0" xmlns="http://www.w3.org/2000/svg"
 width="614.000000pt" height="614.000000pt" viewBox="0 0 614.000000 614.000000"
 preserveAspectRatio="xMidYMid meet">
<metadata>
Created by potrace 1.14, written by Peter Selinger 2001-2017
</metadata>
<g transform="translate(0.000000,614.000000) scale(0.100000,-0.100000)"
fill="#000000" stroke="none">
<path d="M3019 5831 c-24 -15 -69 -41 -99 -58 -84 -46 -103 -57 -118 -70 -7
-7 -18 -13 -23 -13 -5 0 -26 -11 -47 -24 -29 -18 -438 -255 -602 -348 -53 -31
-263 -152 -282 -163 -9 -5 -54 -31 -100 -58 -46 -26 -110 -63 -143 -82 -33
-20 -69 -40 -80 -46 -11 -5 -48 -27 -82 -47 -35 -20 -114 -66 -175 -101 -62
-35 -121 -70 -130 -79 -10 -8 -18 -12 -18 -8 0 4 -15 -4 -33 -16 -17 -13 -45
-30 -62 -38 -16 -8 -37 -19 -45 -26 -8 -6 -42 -26 -75 -44 -33 -17 -63 -36
-66 -42 -3 -5 -10 -10 -15 -10 -5 0 -35 -15 -67 -34 -32 -19 -62 -34 -67 -34
-4 0 -11 -6 -13 -12 -3 -8 -6 -9 -6 -2 -1 6 51 49 115 95 63 46 121 89 127 94
7 6 48 37 92 70 44 33 83 63 86 68 8 12 8 477 0 478 -3 1 -250 2 -548 3 l-543
1 0 -2508 0 -2509 48 6 c82 11 170 21 277 31 28 3 68 7 90 10 22 3 69 7 105
10 36 4 83 8 105 10 22 2 69 6 105 9 94 9 184 16 275 22 44 3 89 6 100 8 20 3
20 11 20 1534 l0 1532 84 50 c46 28 85 50 86 50 1 0 85 48 186 107 101 58 198
114 216 124 17 10 49 28 70 41 21 13 59 35 86 48 26 14 47 28 47 32 0 5 5 8
11 8 6 0 49 23 96 50 47 28 89 50 94 50 5 0 9 5 9 10 0 6 5 10 10 10 6 0 91
46 188 103 190 111 400 233 444 257 35 19 177 101 203 117 11 7 36 20 55 30
19 10 37 21 38 26 9 19 40 4 272 -133 56 -33 144 -84 228 -131 20 -12 89 -52
152 -89 63 -37 138 -80 165 -95 93 -51 280 -160 285 -165 3 -3 16 -11 30 -17
14 -7 48 -26 75 -42 28 -17 59 -35 70 -41 11 -6 29 -16 40 -23 101 -61 256
-147 265 -147 5 0 10 -4 10 -9 0 -5 12 -14 28 -20 15 -6 63 -33 107 -61 44
-27 86 -49 93 -50 6 0 12 -4 12 -10 0 -5 7 -10 15 -10 8 0 24 -8 35 -17 11
-10 24 -18 28 -17 4 0 13 -5 19 -12 7 -7 18 -14 25 -16 10 -4 13 -309 13
-1539 l0 -1534 30 -2 c17 -1 57 -4 90 -7 126 -9 232 -17 270 -22 22 -3 69 -7
105 -9 78 -6 149 -12 210 -20 25 -2 68 -7 95 -10 95 -8 160 -16 233 -25 40 -6
78 -10 83 -10 5 0 8 738 7 1911 l-3 1912 -32 17 c-18 10 -38 22 -45 27 -7 6
-43 27 -81 47 -37 20 -101 57 -143 81 -42 25 -80 45 -85 45 -5 0 -9 5 -9 10 0
6 -4 10 -10 10 -5 0 -44 20 -86 45 -41 25 -77 45 -79 45 -2 0 -44 25 -94 55
-50 30 -95 55 -101 55 -5 0 -10 5 -10 10 0 6 -5 10 -10 10 -6 0 -75 37 -153
83 -78 46 -149 86 -157 90 -8 4 -28 15 -45 26 -16 10 -47 28 -67 40 -21 11
-53 29 -70 40 -248 143 -359 207 -388 223 -19 11 -123 71 -230 133 -107 62
-316 183 -465 268 -148 86 -275 160 -280 164 -6 4 -33 19 -60 33 -28 14 -52
27 -55 30 -4 5 -90 55 -220 127 -25 14 -49 29 -55 33 -26 18 -45 16 -86 -9z"/>
<path d="M2209 2870 c-1 -7 -1 -692 0 -710 1 -13 47 -15 366 -15 l365 0 -2
365 -3 365 -362 0 c-200 0 -363 -2 -364 -5z"/>
<path d="M3205 2870 c-3 -5 -6 -75 -6 -115 1 -8 1 -35 1 -60 0 -25 0 -52 0
-60 0 -8 0 -35 0 -60 0 -25 0 -52 0 -60 0 -8 0 -35 0 -60 0 -60 0 -71 1 -132
0 -29 -2 -57 -6 -63 -3 -5 -3 -10 2 -10 4 0 7 -19 6 -42 0 -23 1 -46 3 -53 3
-8 108 -11 364 -11 354 1 360 1 361 21 0 26 0 663 0 690 -1 20 -8 20 -362 20
-198 0 -362 -2 -364 -5z"/>
<path d="M2212 1922 c-5 -1 -8 -636 -3 -718 1 -8 104 -11 366 -11 l365 0 0
366 0 366 -360 0 c-198 0 -363 -1 -368 -3z"/>
<path d="M3208 1922 c-12 -2 -14 -11 -9 -40 4 -20 4 -51 0 -69 -3 -18 -4 -35
-1 -38 3 -2 5 -40 4 -82 -1 -43 -1 -106 -1 -140 0 -35 0 -71 0 -80 0 -10 0
-56 0 -103 1 -113 1 -114 -1 -125 -1 -6 -2 -19 -1 -31 1 -21 2 -21 366 -21
260 0 365 3 366 11 4 99 0 708 -5 713 -7 7 -684 12 -718 5z"/>
</g>
</svg>
